<svg xmlns="http://www.w3.org/2000/svg" xmlns:xlink="http://www.w3.org/1999/xlink" version="1.1" x="0px" y="0px" viewBox="0 0 96 120" enable-background="new 0 0 96 96" xml:space="preserve"><path d="M48.367,52.708c0-0.133,0.108-0.241,0.24-0.241h22.064v-8.934H48.607c-0.132,0-0.24-0.107-0.24-0.239v-8.411L24.8,48  l23.567,13.117V52.708z M47.367,52.708v6.708L26.856,48l20.511-11.416v6.71c0,0.684,0.556,1.239,1.24,1.239h21.064v6.934H48.607  C47.923,51.467,47.367,52.023,47.367,52.708z"/><path d="M48,85.014c20.409,0,37.014-16.604,37.014-37.014S68.409,10.986,48,10.986S10.986,27.591,10.986,48S27.591,85.014,48,85.014  z M48,11.986c19.858,0,36.014,16.155,36.014,36.014S67.858,84.014,48,84.014S11.986,67.858,11.986,48S28.142,11.986,48,11.986z"/><text x="0" y="111" fill="#000000" font-size="5px" font-weight="bold" font-family="'Helvetica Neue', Helvetica, Arial-Unicode, Arial, Sans-serif">Created by dallasvector</text><text x="0" y="116" fill="#000000" font-size="5px" font-weight="bold" font-family="'Helvetica Neue', Helvetica, Arial-Unicode, Arial, Sans-serif">from the Noun Project</text></svg>